# xmcd CD database file
#
# Track frame offsets:
#	150
#	18070
#	30861
#	43309
#	57011
#	76965
#	89919
#	102739
#	117437
#	137838
#	153349
#	165909
#	178897
#	191532
#	207114
#	228979
#	242782
#	258214
#	269692
#
# Disc length: 3764 seconds
#
# Revision: 1
# Processed by: cddbd v1.5.2PL0 Copyright (c) Steve Scherf et al.
# Submitted via: CDex 1.70beta2
#
DISCID=010eb213
DTITLE=Blues Story - [CD2)
DYEAR=2003
DGENRE=Blues
TTITLE0=Muddy Waters - Hoochie Coochie Man
TTITLE1=Little Walter - Rollin' and Tumblin' (Part 1)
TTITLE2=Elmore James - Dust My Broom
TTITLE3=Guitar Slim - The Things I Used To Do
TTITLE4=Koko Taylor - Wang Dang Doodle
TTITLE5=Jimmy Reed - Big Boss Man
TTITLE6=Howlin' Wolf - How Many More Years
TTITLE7=Otis Rush - Three Times A Fool
TTITLE8=Buddy Guy - The First Time I Met The BLues
TTITLE9=Little Milton - You're Gonna Have A Murder On Your Hands
TTITLE10=Albert King - Born Under A Bad Sign
TTITLE11=Mississippi Fred McDowell - Shake Em On Down
TTITLE12=Big Bill Broonzy - I Can't Be Satisfied
TTITLE13=Skip James - Hard Time Killin' Floor Blues
TTITLE14=Reverend Gary Davis - Samson and Delilah
TTITLE15=Bukka White - Aberdeen Mississippi Blues
TTITLE16=Mississippi John Hurt - Candy Man Blues
TTITLE17=John Lee Hooker - Boom Boom
TTITLE18=Big Mama Thirnton - Hound Dog
EXTD=YEAR: 2003
EXTT0=
EXTT1=
EXTT2=
EXTT3=
EXTT4=
EXTT5=
EXTT6=
EXTT7=
EXTT8=
EXTT9=
EXTT10=
EXTT11=
EXTT12=
EXTT13=
EXTT14=
EXTT15=
EXTT16=
EXTT17=
EXTT18=
PLAYORDER=
